<svg width="120" height="120" viewBox="0 0 120 120" fill="none" xmlns="http://www.w3.org/2000/svg">
<path d="M60 0C44.6438 0 29.2875 5.8575 17.5725 17.5725C-5.8575 41.0025 -5.8575 78.9937 17.5725 102.424C29.2875 114.142 44.6438 120 60 120C75.3562 120 90.7125 114.142 102.427 102.427C125.857 78.9975 125.857 41.0062 102.427 17.5762C90.7125 5.8575 75.3562 0 60 0ZM99.7763 99.7763C89.1488 110.4 75.0262 116.25 60 116.25C44.9738 116.25 30.8513 110.4 20.2238 99.7763C-1.71 77.8425 -1.71 42.1575 20.2238 20.2275C30.8513 9.6 44.9738 3.75 60 3.75C75.0262 3.75 89.1488 9.6 99.7763 20.2238C121.706 42.1575 121.706 77.8425 99.7763 99.7763Z" fill="url(#paint0_linear_482_480)"/>
<path d="M55.9253 27.5118L28.062 55.3751L30.7136 58.0267L58.5769 30.1635L55.9253 27.5118Z" fill="url(#paint1_linear_482_480)"/>
<path d="M73.7964 26.8498L28.5518 72.0945L31.2034 74.7461L76.4481 29.5014L73.7964 26.8498Z" fill="url(#paint2_linear_482_480)"/>
<path d="M89.5741 28.2881L27.7727 90.0895L30.4243 92.7411L92.2258 30.9397L89.5741 28.2881Z" fill="url(#paint3_linear_482_480)"/>
<path d="M88.916 46.1581L45.615 89.4591L48.2666 92.1107L91.5676 48.8097L88.916 46.1581Z" fill="url(#paint4_linear_482_480)"/>
<path d="M89.5007 62.786L61.7886 90.4982L64.4402 93.1498L92.1523 65.4377L89.5007 62.786Z" fill="url(#paint5_linear_482_480)"/>
<defs>
<linearGradient id="paint0_linear_482_480" x1="1.21212" y1="25.9463" x2="92.707" y2="29.7305" gradientUnits="userSpaceOnUse">
<stop stop-color="#07C983"/>
<stop offset="1" stop-color="#0D9373"/>
</linearGradient>
<linearGradient id="paint1_linear_482_480" x1="28.9168" y1="55.667" x2="54.5961" y2="45.5465" gradientUnits="userSpaceOnUse">
<stop stop-color="#07C983"/>
<stop offset="1" stop-color="#0D9373"/>
</linearGradient>
<linearGradient id="paint2_linear_482_480" x1="29.5821" y1="72.2108" x2="68.9289" y2="65.4224" gradientUnits="userSpaceOnUse">
<stop stop-color="#07C983"/>
<stop offset="1" stop-color="#0D9373"/>
</linearGradient>
<linearGradient id="paint3_linear_482_480" x1="28.9703" y1="90.0386" x2="77.0217" y2="89.1569" gradientUnits="userSpaceOnUse">
<stop stop-color="#07C983"/>
<stop offset="1" stop-color="#0D9373"/>
</linearGradient>
<linearGradient id="paint4_linear_482_480" x1="46.6257" y1="89.5951" x2="84.6765" y2="82.2229" gradientUnits="userSpaceOnUse">
<stop stop-color="#07C983"/>
<stop offset="1" stop-color="#0D9373"/>
</linearGradient>
<linearGradient id="paint5_linear_482_480" x1="62.6418" y1="90.7916" x2="88.1838" y2="80.6666" gradientUnits="userSpaceOnUse">
<stop stop-color="#07C983"/>
<stop offset="1" stop-color="#0D9373"/>
</linearGradient>
</defs>
</svg>
