<svg width="200" height="192" viewBox="0 0 200 192" fill="none" xmlns="http://www.w3.org/2000/svg">
<path d="M69.2457 191.004C66.3283 193.335 64.3446 190.995 62.2822 189.866C55.0754 185.92 47.9088 181.899 40.7854 177.804C35.5926 174.819 30.5112 171.641 25.3458 168.607C17.4716 163.982 9.58985 159.37 1.6546 154.852C0.347214 154.108 -0.00263955 153.298 1.496e-05 151.867C0.0452864 127.434 0.0457035 103.001 0.00274027 78.5674C-0.000130534 76.9339 0.535839 76.22 2.02507 75.3816C11.7138 69.9276 21.3063 64.3 30.87 58.6272C32.5917 57.606 33.9576 57.4091 35.7506 58.463C45.2139 64.0254 54.7376 69.4847 64.2478 74.9668C64.9288 75.3594 65.6692 75.6486 66.6687 76.1215C66.6687 75.0013 66.6687 74.0595 66.6687 73.1178C66.6687 62.0864 66.689 51.0549 66.6428 40.0237C66.637 38.6368 66.9019 37.8136 68.2641 37.0399C81.8033 29.351 95.2921 21.5724 108.767 13.7701C116.107 9.51999 123.417 5.21666 130.685 0.844112C132.469 -0.229552 133.998 -0.297099 135.792 0.745606C152.157 10.2598 168.55 19.7259 184.927 29.2213C189.444 31.8407 193.963 34.4619 198.404 37.2066C199.14 37.6615 199.936 38.7566 199.938 39.5583C200.02 64.3559 200.015 89.1539 199.957 113.952C199.955 114.661 199.417 115.681 198.821 116.031C188.762 121.943 178.639 127.747 168.568 133.64C166.592 134.796 164.901 133.929 163.347 133.059C156.568 129.262 149.856 125.343 143.143 121.43C139.961 119.575 136.83 117.633 133.369 115.545C133.369 127.369 133.268 138.809 133.442 150.245C133.484 153.041 132.623 154.349 130.135 155.725C119.394 161.664 108.847 167.954 98.2342 174.125C88.6293 179.71 79.0309 185.306 69.2457 191.004ZM76.5294 147.575C83.8729 143.342 91.2417 139.152 98.5222 134.813C99.2819 134.36 99.9276 133.03 99.9355 132.101C100.031 120.805 100.001 109.508 99.9872 98.2109C99.9866 97.6551 99.8341 97.0995 99.7485 96.5172C88.7135 102.869 77.8865 109.102 66.6229 115.586C66.6229 102.396 66.6229 89.9494 66.6229 77.2636C65.9504 77.5738 65.4834 77.7457 65.0591 77.9915C55.301 83.6415 45.5853 89.3669 35.7607 94.8984C33.843 95.9781 33.3449 97.1302 33.3707 99.2406C33.5001 109.807 33.4685 120.377 33.3976 130.944C33.3834 133.061 33.4634 134.639 35.9434 135.527C38.0702 136.288 39.8827 137.903 41.878 139.065C49.671 143.603 57.4599 148.15 65.3204 152.569C66.0679 152.989 67.4635 152.852 68.284 152.433C71.0033 151.047 73.597 149.414 76.5294 147.575ZM113.137 50.2744C109.329 52.449 105.561 54.7006 101.69 56.7564C100.342 57.4723 100.027 58.3155 100.034 59.7392C100.091 70.9511 100.063 82.1634 100.075 93.3756C100.076 94.0208 100.205 94.6659 100.276 95.3266C111.329 88.9693 122.155 82.743 133.423 76.2625C133.423 89.4505 133.423 101.898 133.423 114.738C144.645 108.25 155.57 101.934 166.634 95.5376C166.634 83.5369 166.664 71.4168 166.565 59.2977C166.558 58.4984 165.746 57.3996 165.002 56.9588C155.023 51.0453 144.979 45.2437 134.985 39.3556C133.716 38.6078 132.755 38.7809 131.566 39.4787C125.543 43.017 119.477 46.4846 113.137 50.2744Z" fill="#CEFF1A"/>
</svg>
