<svg width="700" height="199" viewBox="0 0 700 199" fill="none" xmlns="http://www.w3.org/2000/svg">
<path d="M71.6359 197.265C68.6178 199.673 66.5656 197.256 64.432 196.09C56.9764 192.015 49.5624 187.862 42.1932 183.633C36.8212 180.55 31.5644 177.268 26.2207 174.135C18.0747 169.358 9.92086 164.594 1.71171 159.928C0.359199 159.16 -0.00273066 158.324 1.54763e-05 156.846C0.0468496 131.611 0.0472811 106.377 0.00283486 81.1431C-0.000135039 79.456 0.554335 78.7187 2.09497 77.8529C12.1181 72.22 22.0417 66.408 31.9356 60.5492C33.7167 59.4945 35.1297 59.2911 36.9846 60.3796C46.7745 66.1244 56.627 71.7627 66.4654 77.4245C67.17 77.8299 67.936 78.1286 68.9699 78.617C68.9699 77.4601 68.97 76.4875 68.9699 75.5148C68.9699 64.1218 68.9909 52.7286 68.9432 41.3358C68.9372 39.9034 69.2111 39.0532 70.6203 38.2542C84.6269 30.3133 98.5813 22.2797 112.521 14.2215C120.114 9.83209 127.677 5.38768 135.196 0.871785C137.042 -0.237078 138.623 -0.306838 140.479 0.77005C157.409 10.5961 174.368 20.3726 191.31 30.1793C195.983 32.8845 200.658 35.5917 205.252 38.4264C206.014 38.8962 206.837 40.0271 206.84 40.8552C206.924 66.4657 206.919 92.0766 206.859 117.687C206.857 118.42 206.3 119.474 205.684 119.835C195.277 125.941 184.805 131.935 174.387 138.021C172.343 139.215 170.593 138.32 168.985 137.421C161.972 133.5 155.029 129.452 148.084 125.41C144.792 123.495 141.553 121.489 137.973 119.333C137.973 131.545 137.868 143.359 138.048 155.17C138.091 158.058 137.201 159.409 134.627 160.83C123.515 166.963 112.604 173.46 101.625 179.833C91.6885 185.601 81.7588 191.381 71.6359 197.265ZM79.1709 152.413C86.7679 148.041 94.3911 143.714 101.923 139.233C102.709 138.765 103.377 137.392 103.385 136.432C103.484 124.766 103.453 113.098 103.438 101.431C103.438 100.857 103.28 100.283 103.191 99.6814C91.7756 106.242 80.5749 112.679 68.9225 119.375C68.9225 105.753 68.9225 92.8983 68.9225 79.7966C68.2269 80.117 67.7437 80.2945 67.3047 80.5483C57.2098 86.3836 47.1587 92.2966 36.9951 98.0095C35.0112 99.1246 34.4959 100.314 34.5226 102.494C34.6565 113.407 34.6237 124.323 34.5504 135.237C34.5357 137.423 34.6184 139.053 37.184 139.97C39.3843 140.756 41.2593 142.424 43.3235 143.624C51.3855 148.311 59.4432 153.007 67.575 157.571C68.3484 158.005 69.7921 157.863 70.641 157.431C73.4541 155.999 76.1374 154.312 79.1709 152.413ZM117.042 51.9226C113.102 54.1685 109.205 56.4938 105.2 58.6171C103.805 59.3565 103.48 60.2273 103.487 61.6976C103.546 73.2771 103.516 84.857 103.529 96.4368C103.53 97.1032 103.663 97.7694 103.737 98.4518C115.172 91.886 126.372 85.4556 138.029 78.7626C138.029 92.383 138.029 105.239 138.029 118.499C149.638 111.799 160.94 105.275 172.385 98.6696C172.385 86.2756 172.417 73.7581 172.314 61.2417C172.307 60.4162 171.467 59.2814 170.698 58.8261C160.374 52.7187 149.983 46.7269 139.644 40.6458C138.331 39.8735 137.337 40.0522 136.108 40.773C129.876 44.4273 123.601 48.0086 117.042 51.9226Z" fill="#CEFF1A"/>
<g clip-path="url(#clip0_979_107)">
<path d="M273.787 143.864V130.869C291.385 131.83 303.296 132.311 309.519 132.311C310.998 132.311 312.169 131.874 313.031 130.999C313.894 130.136 314.325 128.965 314.325 127.486V118.817H292.18C285.439 118.817 280.547 117.295 277.503 114.251C274.447 111.195 272.918 106.296 272.918 99.5554V96.6717C272.918 89.9308 274.447 85.0384 277.503 81.9945C280.547 78.9383 285.439 77.4102 292.18 77.4102H325.989V90.9043H296.043C292.186 90.9043 290.258 92.8268 290.258 96.6717V98.5942C290.258 102.451 292.186 104.38 296.043 104.38H313.364C319.661 104.38 324.283 105.859 327.228 108.816C330.186 111.762 331.664 116.383 331.664 122.68V127.486C331.664 133.784 330.186 138.405 327.228 141.35C324.283 144.308 319.661 145.787 313.364 145.787C310.098 145.787 306.635 145.725 302.975 145.602L294.102 145.214C287.559 144.893 280.787 144.444 273.787 143.864ZM392.333 130.869V143.864C378.013 145.146 366.133 145.787 356.693 145.787C350.408 145.787 345.787 144.308 342.829 141.35C339.884 138.405 338.411 133.784 338.411 127.486V96.6717C338.411 89.9308 339.933 85.0384 342.977 81.9945C346.033 78.9383 350.932 77.4102 357.673 77.4102H392.333V90.9043H361.518C357.661 90.9043 355.732 92.8268 355.732 96.6717V127.486C355.732 128.965 356.169 130.136 357.044 130.999C357.907 131.874 359.01 132.311 360.353 132.311C361.709 132.311 363.188 132.293 364.79 132.256C366.392 132.219 368.062 132.169 369.799 132.108C371.537 132.046 373.287 131.985 375.049 131.923C376.811 131.861 379.091 131.732 381.889 131.535C384.674 131.338 388.155 131.116 392.333 130.869ZM416.4 132.792L412.075 144.826H393.294L418.803 77.4102H438.065L463.593 144.826H444.812L440.487 132.792H416.4ZM428.434 97.6329L420.744 120.259H436.143L428.434 97.6329ZM527.145 77.4102V144.826H508.845L485.738 104.38V144.826H468.399V77.4102H486.699L509.806 117.856V77.4102H527.145ZM570.474 131.35V144.826H535.815V131.35H544.484V90.9043H535.815V77.4102H570.474V90.9043H561.805V131.35H570.474ZM596.483 120.259V144.826H579.144V77.4102H632.584V90.9043H596.483V106.783H624.895V120.259H596.483ZM657.151 127.006L631.623 77.4102H649.923L665.821 110.166L681.699 77.4102H700L674.472 127.006V144.826H657.151V127.006Z" fill="white"/>
</g>
<defs>
<clipPath id="clip0_979_107">
<rect width="427.081" height="68.3766" fill="white" transform="translate(272.918 77.4102)"/>
</clipPath>
</defs>
</svg>
