<svg width="918" height="566" viewBox="0 0 918 566" fill="none" xmlns="http://www.w3.org/2000/svg">
<path d="M326.552 351.417C324.839 352.784 323.674 351.412 322.462 350.75C318.23 348.437 314.021 346.079 309.837 343.678C306.787 341.928 303.803 340.064 300.769 338.285C296.144 335.574 291.515 332.869 286.855 330.22C286.087 329.784 285.882 329.309 285.883 328.47C285.91 314.144 285.91 299.818 285.885 285.492C285.883 284.535 286.198 284.116 287.072 283.624C292.763 280.426 298.397 277.127 304.014 273.801C305.025 273.202 305.827 273.087 306.88 273.704C312.438 276.966 318.031 280.167 323.617 283.381C324.017 283.611 324.452 283.781 325.039 284.058C325.039 283.401 325.039 282.849 325.039 282.297C325.039 275.829 325.051 269.361 325.023 262.893C325.02 262.08 325.176 261.597 325.976 261.143C333.927 256.635 341.85 252.074 349.763 247.5C354.074 245.008 358.368 242.484 362.636 239.921C363.684 239.291 364.582 239.252 365.636 239.863C375.247 245.441 384.875 250.992 394.493 256.559C397.147 258.095 399.8 259.632 402.409 261.241C402.841 261.508 403.308 262.15 403.31 262.62C403.358 277.16 403.355 291.699 403.321 306.239C403.32 306.655 403.004 307.253 402.654 307.459C396.746 310.925 390.801 314.328 384.886 317.783C383.725 318.461 382.732 317.953 381.819 317.442C377.838 315.216 373.896 312.918 369.953 310.624C368.084 309.536 366.245 308.398 364.213 307.174C364.213 314.106 364.154 320.814 364.255 327.519C364.28 329.158 363.775 329.926 362.313 330.732C356.005 334.214 349.811 337.902 343.578 341.521C337.936 344.795 332.299 348.076 326.552 351.417ZM330.83 325.954C335.143 323.472 339.471 321.015 343.747 318.471C344.193 318.205 344.572 317.426 344.577 316.881C344.633 310.258 344.615 303.634 344.607 297.01C344.607 296.684 344.517 296.358 344.467 296.017C337.986 299.741 331.627 303.396 325.012 307.197C325.012 299.464 325.012 292.166 325.012 284.728C324.617 284.91 324.342 285.011 324.093 285.155C318.362 288.467 312.656 291.824 306.886 295.068C305.76 295.701 305.467 296.376 305.482 297.614C305.558 303.809 305.54 310.006 305.498 316.202C305.49 317.444 305.537 318.369 306.993 318.889C308.242 319.335 309.307 320.282 310.479 320.964C315.056 323.625 319.63 326.291 324.247 328.882C324.686 329.128 325.505 329.047 325.987 328.802C327.584 327.989 329.108 327.032 330.83 325.954ZM352.33 268.903C350.093 270.178 347.881 271.498 345.607 272.704C344.815 273.124 344.63 273.618 344.635 274.453C344.668 281.027 344.651 287.601 344.659 294.175C344.659 294.553 344.735 294.931 344.776 295.319C351.269 291.591 357.627 287.941 364.245 284.141C364.245 291.873 364.245 299.172 364.245 306.7C370.835 302.896 377.252 299.193 383.75 295.442C383.75 288.406 383.767 281.3 383.709 274.194C383.705 273.725 383.228 273.081 382.791 272.822C376.931 269.355 371.031 265.954 365.162 262.501C364.416 262.063 363.852 262.164 363.154 262.573C359.616 264.648 356.054 266.681 352.33 268.903Z" fill="#CEFF1A"/>
<g clip-path="url(#clip0_977_96)">
<path d="M441.318 321.098V313.721C451.308 314.267 458.07 314.539 461.603 314.539C462.443 314.539 463.107 314.291 463.597 313.794C464.087 313.305 464.332 312.64 464.332 311.8V306.879H451.759C447.933 306.879 445.155 306.014 443.427 304.286C441.692 302.551 440.824 299.77 440.824 295.943V294.306C440.824 290.479 441.692 287.702 443.427 285.974C445.155 284.239 447.933 283.371 451.759 283.371H470.954V291.032H453.953C451.763 291.032 450.668 292.123 450.668 294.306V295.398C450.668 297.587 451.763 298.682 453.953 298.682H463.786C467.361 298.682 469.985 299.522 471.657 301.201C473.336 302.873 474.176 305.497 474.176 309.072V311.8C474.176 315.375 473.336 317.999 471.657 319.671C469.985 321.35 467.361 322.19 463.786 322.19C461.932 322.19 459.966 322.155 457.888 322.085L452.851 321.865C449.136 321.683 445.291 321.427 441.318 321.098ZM508.618 313.721V321.098C500.488 321.826 493.744 322.19 488.385 322.19C484.817 322.19 482.193 321.35 480.514 319.671C478.842 317.999 478.006 315.375 478.006 311.8V294.306C478.006 290.479 478.87 287.702 480.598 285.974C482.333 284.239 485.114 283.371 488.941 283.371H508.618V291.032H491.124C488.934 291.032 487.839 292.123 487.839 294.306V311.8C487.839 312.64 488.088 313.305 488.584 313.794C489.074 314.291 489.7 314.539 490.463 314.539C491.232 314.539 492.072 314.529 492.981 314.508C493.891 314.487 494.839 314.459 495.825 314.424C496.812 314.389 497.805 314.354 498.806 314.319C499.806 314.284 501.101 314.211 502.689 314.099C504.27 313.987 506.246 313.861 508.618 313.721ZM522.282 314.812L519.826 321.644H509.164L523.646 283.371H534.581L549.074 321.644H538.412L535.956 314.812H522.282ZM529.114 294.852L524.748 307.697H533.49L529.114 294.852ZM585.154 283.371V321.644H574.764L561.646 298.682V321.644H551.802V283.371H562.192L575.31 306.333V283.371H585.154ZM609.752 313.994V321.644H590.076V313.994H594.997V291.032H590.076V283.371H609.752V291.032H604.831V313.994H609.752ZM624.518 307.697V321.644H614.674V283.371H645.014V291.032H624.518V300.047H640.648V307.697H624.518ZM658.961 311.528L644.468 283.371H654.857L663.883 301.967L672.897 283.371H683.287L668.794 311.528V321.644H658.961V311.528Z" fill="white"/>
</g>
<g filter="url(#filter0_f_977_96)">
<rect x="72" y="72" width="546" height="422" fill="url(#paint0_radial_977_96)" fill-opacity="0.4"/>
</g>
<defs>
<filter id="filter0_f_977_96" x="0.571426" y="0.571426" width="688.857" height="564.857" filterUnits="userSpaceOnUse" color-interpolation-filters="sRGB">
<feFlood flood-opacity="0" result="BackgroundImageFix"/>
<feBlend mode="normal" in="SourceGraphic" in2="BackgroundImageFix" result="shape"/>
<feGaussianBlur stdDeviation="35.7143" result="effect1_foregroundBlur_977_96"/>
</filter>
<radialGradient id="paint0_radial_977_96" cx="0" cy="0" r="1" gradientUnits="userSpaceOnUse" gradientTransform="translate(345 283) rotate(90) scale(211 273)">
<stop offset="0.015625" stop-color="#CEFF1A" stop-opacity="0.69"/>
<stop offset="0.223958" stop-color="#CEFF1A" stop-opacity="0.34"/>
<stop offset="0.911458" stop-color="#CEFF1A" stop-opacity="0"/>
</radialGradient>
<clipPath id="clip0_977_96">
<rect width="242.462" height="38.8187" fill="white" transform="translate(440.824 283.371)"/>
</clipPath>
</defs>
</svg>
