<svg width="396" height="116" viewBox="0 0 396 116" fill="none" xmlns="http://www.w3.org/2000/svg">
<path d="M57.8117 0C43.0155 0 28.2193 5.64386 16.9316 16.9316C-5.64386 39.507 -5.64386 76.1127 16.9316 98.6881C28.2193 109.979 43.0155 115.623 57.8117 115.623C72.6078 115.623 87.404 109.979 98.6917 98.6917C121.267 76.1163 121.267 39.5107 98.6917 16.9352C87.404 5.64386 72.6078 0 57.8117 0ZM96.1372 96.1372C85.8973 106.373 72.2899 112.01 57.8117 112.01C43.3335 112.01 29.726 106.373 19.4861 96.1372C-1.64763 75.0034 -1.64763 40.6199 19.4861 19.4898C29.726 9.24987 43.3335 3.61323 57.8117 3.61323C72.2899 3.61323 85.8973 9.24987 96.1372 19.4861C117.267 40.6199 117.267 75.0034 96.1372 96.1372Z" fill="url(#paint0_linear_494_14)"/>
<path d="M53.8856 26.5084L27.0386 53.3555L29.5935 55.9104L56.4405 29.0633L53.8856 26.5084Z" fill="url(#paint1_linear_494_14)"/>
<path d="M71.105 25.8706L27.5105 69.4651L30.0654 72.02L73.6599 28.4255L71.105 25.8706Z" fill="url(#paint2_linear_494_14)"/>
<path d="M86.3072 27.2563L26.7598 86.8037L29.3147 89.3586L88.8621 29.8112L86.3072 27.2563Z" fill="url(#paint3_linear_494_14)"/>
<path d="M85.6732 44.4745L43.9514 86.1963L46.5063 88.7512L88.2281 47.0295L85.6732 44.4745Z" fill="url(#paint4_linear_494_14)"/>
<path d="M86.2363 60.4961L59.5349 87.1975L62.0898 89.7524L88.7912 63.051L86.2363 60.4961Z" fill="url(#paint5_linear_494_14)"/>
<path d="M169.347 68.7655C169.347 72.6644 167.841 75.8545 164.828 78.247C161.815 80.7282 158.093 81.9687 153.751 81.9687C146.662 81.9687 142.055 79.0445 139.662 75.5886C137.89 73.1961 137.269 71.0694 137.004 68.8541L142.852 67.3477C143.561 71.4239 146.662 76.3862 153.663 76.3862C156.144 76.3862 158.271 75.6773 160.131 74.3481C161.904 73.1075 162.79 71.3353 162.79 69.1199C162.79 67.3477 162.081 65.9299 160.663 64.8665C159.245 63.7146 157.562 63.0057 155.612 62.5626L148.878 61.0562C141.612 59.4612 137.89 55.5622 137.89 49.5366C137.89 45.0174 140.194 41.2957 143.384 39.3462C146.485 37.3967 149.852 36.422 152.865 36.422C159.511 36.5106 163.765 39.0803 166.069 42.2704C167.664 44.4857 168.372 46.3466 168.727 48.2074L162.878 49.8911C162.435 48.1188 161.727 46.701 160.309 44.9288C158.802 43.1565 156.144 42.0932 152.865 42.0932C150.473 42.0932 148.523 42.7135 146.84 44.1313C145.156 45.4604 144.358 47.1441 144.358 49.0935C144.358 52.5494 146.84 54.1445 150.739 55.1192L157.828 56.7142C163.587 58.0434 169.347 61.6765 169.347 68.7655ZM179.874 59.0181C179.874 65.221 182.444 70.6264 187.318 73.8164C189.799 75.5 192.635 76.2975 195.825 76.2975C199.546 76.2975 202.825 75.057 204.863 73.5506C205.838 72.8417 206.724 71.9555 207.61 70.8922C209.205 68.7655 209.914 67.3477 210.534 65.7527L216.471 67.7021C215.497 71.158 213.104 74.5253 209.737 77.2723C206.369 80.1079 201.23 82.0574 195.736 82.0574C183.153 82.2346 173.14 72.3986 173.317 59.3726C173.317 55.0306 174.38 51.1316 176.418 47.5871C178.457 44.0426 181.204 41.2957 184.659 39.3462C188.115 37.3967 191.837 36.422 196.002 36.422C200.964 36.422 205.395 37.8398 209.116 40.4981C212.927 43.3337 215.319 46.6124 216.205 50.5113L210.357 52.4608C209.382 48.9163 204.863 42.1818 195.825 42.1818C191.217 42.1818 187.406 43.7768 184.394 47.0555C181.381 50.3341 179.874 54.3217 179.874 59.0181ZM237.277 55.8281H249.506V52.9039C249.506 45.8149 245.607 42.1818 238.252 42.1818C234.708 42.1818 231.695 43.3337 229.923 45.106C228.15 46.8782 227.087 48.9163 226.733 51.1316L220.53 49.8024C220.618 47.5871 222.745 43.2451 226.733 40.0551C229.391 38.017 233.644 36.422 238.429 36.422C246.493 36.422 251.81 39.4348 254.468 45.549C255.354 47.5871 255.797 49.9797 255.797 52.8153V65.221C255.797 72.5758 256.063 77.9812 256.506 81.2598H250.126C249.772 79.3104 249.506 76.7406 249.506 73.5506C245.784 79.2218 240.911 82.0574 234.619 82.0574C230.277 82.0574 226.644 80.8168 223.986 78.3356C221.239 75.9431 219.821 72.8417 219.821 69.0313V68.5883C219.821 59.0181 229.391 55.8281 237.277 55.8281ZM249.506 62.6512V61.1448H237.189C234.619 61.1448 232.227 61.5879 230.011 62.6512C227.796 63.626 226.29 65.7527 226.29 68.4997C226.29 70.9808 227.176 72.8417 229.036 74.2595C230.809 75.6773 233.024 76.3862 235.771 76.3862C239.67 76.3862 242.949 75.057 245.607 72.4872C248.177 70.0061 249.506 66.6388 249.506 62.6512ZM303.719 81.2598H297.25V55.6509C297.25 51.5747 296.276 48.3846 294.149 45.9035C292.111 43.511 289.098 42.2704 285.11 42.2704C281.3 42.2704 278.11 43.5996 275.629 46.258C273.236 48.9163 271.996 52.195 271.996 56.1825V81.2598H265.527V37.2195H271.819V45.2832C275.363 39.3462 280.414 36.422 287.06 36.422C292.288 36.422 296.364 38.017 299.377 41.207C302.213 44.4857 303.719 48.7391 303.719 54.0558V81.2598ZM313.271 24.9024C312.385 23.9276 311.854 22.7757 311.854 21.4465C311.854 20.1173 312.385 18.9653 313.271 17.9906C314.158 17.1045 315.398 16.5728 316.727 16.5728C318.056 16.5728 319.208 17.1045 320.095 17.9906C321.069 18.9653 321.512 20.1173 321.512 21.4465C321.512 22.7757 321.069 23.9276 320.095 24.9024C319.208 25.7885 318.056 26.3202 316.727 26.3202C315.398 26.3202 314.158 25.7885 313.271 24.9024ZM313.449 81.2598V37.2195H319.917V81.2598H313.449ZM347.192 19.5856C345.42 19.5856 343.825 20.1173 342.319 21.3579C340.812 22.6871 339.837 25.3454 339.837 28.8899V37.2195H351.357V42.8021H339.837V81.2598H333.457V42.8021H324.951V37.2195H333.457V29.0671C333.457 24.1049 334.698 20.3831 337.09 17.7248C339.572 15.155 342.85 13.9144 346.926 13.9144C348.61 13.9144 350.205 14.1803 351.711 14.7119V20.1173C350.648 19.7628 349.053 19.5856 347.192 19.5856ZM365.872 102.97H358.871L370.302 78.247L350.276 37.2195H357.631L373.758 71.2466L389.088 37.2195H396L365.872 102.97Z" fill="url(#paint6_linear_494_14)"/>
<defs>
<linearGradient id="paint0_linear_494_14" x1="1.16791" y1="25" x2="89.3257" y2="28.6462" gradientUnits="userSpaceOnUse">
<stop stop-color="#5D32F5"/>
<stop offset="1" stop-color="#8261F3"/>
</linearGradient>
<linearGradient id="paint1_linear_494_14" x1="27.8622" y1="53.6367" x2="52.6049" y2="43.8853" gradientUnits="userSpaceOnUse">
<stop stop-color="#5D32F5"/>
<stop offset="1" stop-color="#8261F3"/>
</linearGradient>
<linearGradient id="paint2_linear_494_14" x1="28.5033" y1="69.5772" x2="66.415" y2="63.0363" gradientUnits="userSpaceOnUse">
<stop stop-color="#5D32F5"/>
<stop offset="1" stop-color="#8261F3"/>
</linearGradient>
<linearGradient id="paint3_linear_494_14" x1="27.9137" y1="86.7546" x2="74.2125" y2="85.9052" gradientUnits="userSpaceOnUse">
<stop stop-color="#5D32F5"/>
<stop offset="1" stop-color="#8261F3"/>
</linearGradient>
<linearGradient id="paint4_linear_494_14" x1="44.9253" y1="86.3273" x2="81.5883" y2="79.224" gradientUnits="userSpaceOnUse">
<stop stop-color="#5D32F5"/>
<stop offset="1" stop-color="#8261F3"/>
</linearGradient>
<linearGradient id="paint5_linear_494_14" x1="60.357" y1="87.4802" x2="84.9674" y2="77.7245" gradientUnits="userSpaceOnUse">
<stop stop-color="#5D32F5"/>
<stop offset="1" stop-color="#8261F3"/>
</linearGradient>
<linearGradient id="paint6_linear_494_14" x1="139.62" y1="33.1699" x2="334.61" y2="56.6241" gradientUnits="userSpaceOnUse">
<stop stop-color="#5D32F5"/>
<stop offset="1" stop-color="#8261F3"/>
</linearGradient>
</defs>
</svg>
