<svg width="700" height="320" viewBox="0 0 700 320" fill="none" xmlns="http://www.w3.org/2000/svg">
<g clip-path="url(#clip0_979_158)">
<rect width="700" height="320" rx="13" fill="black"/>
<path d="M262.29 610.061C250.65 619.276 242.735 610.025 234.506 605.562C205.751 589.966 177.156 574.069 148.734 557.882C128.015 546.082 107.74 533.517 87.1299 521.525C55.7119 503.243 24.2635 485.008 -7.39816 467.149C-12.6146 464.206 -14.0105 461.007 -13.9999 455.349C-13.8193 358.762 -13.8176 262.174 -13.9891 165.587C-14.0005 159.129 -11.862 156.307 -5.91996 152.993C32.738 131.432 71.0122 109.186 109.171 86.7607C116.041 82.7237 121.491 81.9452 128.645 86.1115C166.403 108.101 204.403 129.682 242.349 151.353C245.066 152.905 248.02 154.048 252.008 155.918C252.008 151.489 252.008 147.767 252.008 144.044C252.008 100.435 252.089 56.8264 251.905 13.2186C251.882 7.736 252.939 4.48169 258.374 1.42354C312.395 -28.9717 366.215 -59.7215 419.979 -90.5651C449.266 -107.366 478.434 -124.378 507.432 -141.663C514.552 -145.907 520.652 -146.174 527.809 -142.053C593.107 -104.442 658.516 -67.021 723.858 -29.4846C741.883 -19.1298 759.911 -8.76781 777.633 2.08249C780.569 3.8806 783.744 8.20957 783.754 11.3789C784.078 109.407 784.059 207.436 783.829 305.465C783.822 308.27 781.675 312.303 779.298 313.687C739.16 337.058 698.77 360.001 658.587 383.296C650.703 387.866 643.954 384.438 637.754 380.998C610.705 365.99 583.927 350.496 557.141 335.026C544.446 327.694 531.952 320.017 518.143 311.766C518.143 358.505 517.74 403.729 518.432 448.936C518.601 459.99 515.167 465.162 505.239 470.601C462.383 494.076 420.299 518.943 377.954 543.337C339.631 565.414 301.333 587.536 262.29 610.061ZM291.352 438.382C320.653 421.649 350.054 405.085 379.104 387.933C382.135 386.143 384.711 380.885 384.743 377.213C385.125 332.558 385.005 287.898 384.949 243.24C384.946 241.043 384.338 238.846 383.996 236.545C339.967 261.656 296.767 286.294 251.825 311.925C251.825 259.786 251.825 210.581 251.825 160.433C249.142 161.659 247.279 162.339 245.586 163.31C206.651 185.645 167.885 208.278 128.685 230.145C121.034 234.413 119.046 238.968 119.149 247.31C119.666 289.082 119.539 330.863 119.256 372.639C119.2 381.007 119.519 387.246 129.414 390.754C137.9 393.762 145.132 400.147 153.093 404.74C184.187 422.682 215.265 440.657 246.628 458.125C249.611 459.786 255.179 459.242 258.453 457.588C269.303 452.108 279.652 445.652 291.352 438.382ZM437.416 53.741C422.221 62.3376 407.188 71.2382 391.742 79.3653C386.364 82.1953 385.107 85.5285 385.136 91.1564C385.364 135.478 385.25 179.802 385.299 224.125C385.302 226.676 385.817 229.226 386.1 231.838C430.205 206.707 473.4 182.094 518.36 156.475C518.36 208.609 518.36 257.816 518.36 308.572C563.134 282.926 606.726 257.956 650.868 232.672C650.868 185.232 650.989 137.32 650.593 89.4113C650.567 86.2516 647.326 81.9078 644.359 80.1652C604.544 56.7884 564.466 33.8538 524.59 10.5777C519.525 7.62128 515.691 8.30561 510.95 11.0643C486.915 25.0516 462.714 38.7595 437.416 53.741Z" fill="#CEFF1A" fill-opacity="0.02"/>
<path d="M243.599 193.842C242.41 194.79 241.602 193.838 240.762 193.379C237.826 191.774 234.906 190.138 232.003 188.473C229.887 187.259 227.817 185.966 225.712 184.732C222.504 182.851 219.293 180.974 216.059 179.137C215.527 178.834 215.384 178.505 215.385 177.922C215.404 167.984 215.404 158.045 215.386 148.107C215.385 147.442 215.604 147.152 216.21 146.811C220.158 144.592 224.066 142.303 227.963 139.996C228.665 139.58 229.221 139.5 229.952 139.929C233.808 142.192 237.688 144.412 241.563 146.642C241.84 146.802 242.142 146.92 242.549 147.112C242.549 146.656 242.549 146.273 242.549 145.89C242.549 141.403 242.557 136.916 242.539 132.429C242.536 131.864 242.644 131.53 243.199 131.215C248.716 128.087 254.212 124.923 259.702 121.75C262.693 120.021 265.671 118.27 268.632 116.492C269.359 116.055 269.982 116.028 270.713 116.452C277.381 120.322 284.061 124.172 290.733 128.035C292.574 129.1 294.415 130.166 296.224 131.283C296.524 131.468 296.848 131.913 296.85 132.239C296.883 142.326 296.881 152.413 296.857 162.5C296.856 162.788 296.637 163.203 296.394 163.346C292.296 165.751 288.171 168.111 284.068 170.508C283.263 170.979 282.573 170.626 281.94 170.272C279.178 168.728 276.444 167.133 273.708 165.542C272.412 164.787 271.136 163.997 269.726 163.148C269.726 167.958 269.685 172.611 269.756 177.262C269.773 178.4 269.422 178.932 268.408 179.492C264.032 181.907 259.735 184.466 255.41 186.976C251.497 189.248 247.586 191.524 243.599 193.842ZM246.567 176.177C249.559 174.455 252.561 172.75 255.528 170.986C255.837 170.801 256.1 170.26 256.104 169.883C256.143 165.288 256.13 160.692 256.125 156.097C256.124 155.871 256.062 155.645 256.027 155.408C251.531 157.992 247.12 160.527 242.531 163.165C242.531 157.8 242.531 152.737 242.531 147.576C242.257 147.703 242.066 147.773 241.893 147.873C237.917 150.171 233.959 152.5 229.956 154.75C229.174 155.189 228.972 155.657 228.982 156.516C229.035 160.814 229.022 165.113 228.993 169.412C228.987 170.273 229.02 170.915 230.03 171.276C230.897 171.585 231.635 172.242 232.448 172.715C235.624 174.561 238.797 176.411 242 178.208C242.304 178.379 242.873 178.323 243.207 178.153C244.315 177.589 245.372 176.925 246.567 176.177ZM261.482 136.598C259.931 137.483 258.396 138.399 256.818 139.235C256.269 139.526 256.141 139.869 256.144 140.448C256.167 145.009 256.155 149.57 256.16 154.13C256.161 154.393 256.213 154.655 256.242 154.924C260.746 152.338 265.157 149.805 269.748 147.169C269.748 152.534 269.748 157.597 269.748 162.82C274.32 160.181 278.772 157.611 283.28 155.01C283.28 150.128 283.292 145.198 283.251 140.269C283.249 139.943 282.918 139.497 282.615 139.317C278.549 136.912 274.456 134.552 270.384 132.157C269.867 131.853 269.476 131.923 268.992 132.207C266.537 133.646 264.066 135.057 261.482 136.598Z" fill="#CEFF1A"/>
<g clip-path="url(#clip1_979_158)">
<path d="M323.217 172.81V167.692C330.148 168.07 334.839 168.26 337.29 168.26C337.872 168.26 338.333 168.087 338.673 167.743C339.013 167.403 339.183 166.942 339.183 166.359V162.945H330.461C327.806 162.945 325.879 162.345 324.68 161.147C323.476 159.943 322.875 158.014 322.875 155.359V154.223C322.875 151.568 323.476 149.641 324.68 148.442C325.879 147.239 327.806 146.637 330.461 146.637H343.777V151.951H331.982C330.463 151.951 329.704 152.709 329.704 154.223V154.98C329.704 156.499 330.463 157.259 331.982 157.259H338.804C341.284 157.259 343.104 157.841 344.264 159.006C345.429 160.166 346.012 161.986 346.012 164.466V166.359C346.012 168.84 345.429 170.66 344.264 171.82C343.104 172.985 341.284 173.567 338.804 173.567C337.518 173.567 336.154 173.543 334.712 173.494L331.218 173.341C328.641 173.215 325.974 173.038 323.217 172.81ZM369.906 167.692V172.81C364.266 173.315 359.587 173.567 355.869 173.567C353.394 173.567 351.574 172.985 350.409 171.82C349.249 170.66 348.669 168.84 348.669 166.359V154.223C348.669 151.568 349.268 149.641 350.467 148.442C351.671 147.239 353.6 146.637 356.255 146.637H369.906V151.951H357.77C356.25 151.951 355.491 152.709 355.491 154.223V166.359C355.491 166.942 355.663 167.403 356.008 167.743C356.347 168.087 356.782 168.26 357.311 168.26C357.845 168.26 358.427 168.252 359.058 168.238C359.689 168.223 360.347 168.204 361.031 168.179C361.716 168.155 362.405 168.131 363.099 168.107C363.793 168.082 364.691 168.031 365.793 167.954C366.89 167.876 368.261 167.789 369.906 167.692ZM379.385 168.449L377.682 173.188H370.285L380.332 146.637H387.918L397.972 173.188H390.575L388.872 168.449H379.385ZM384.125 154.601L381.096 163.513H387.161L384.125 154.601ZM423.002 146.637V173.188H415.795L406.694 157.259V173.188H399.865V146.637H407.073L416.173 162.566V146.637H423.002ZM440.067 167.881V173.188H426.417V167.881H429.831V151.951H426.417V146.637H440.067V151.951H436.653V167.881H440.067ZM450.311 163.513V173.188H443.482V146.637H464.53V151.951H450.311V158.205H461.501V163.513H450.311ZM474.205 166.17L464.151 146.637H471.359L477.62 159.538L483.874 146.637H491.081L481.027 166.17V173.188H474.205V166.17Z" fill="white"/>
</g>
<g filter="url(#filter0_f_979_158)">
<rect x="60" width="378.784" height="292.76" fill="url(#paint0_radial_979_158)" fill-opacity="0.4"/>
</g>
<g filter="url(#filter1_f_979_158)">
<rect x="436" y="-199" width="546" height="422" fill="url(#paint1_radial_979_158)" fill-opacity="0.1"/>
</g>
<g filter="url(#filter2_f_979_158)">
<rect x="-261" y="94" width="546" height="422" fill="url(#paint2_radial_979_158)" fill-opacity="0.1"/>
</g>
</g>
<defs>
<filter id="filter0_f_979_158" x="-11.4286" y="-71.4286" width="521.641" height="435.619" filterUnits="userSpaceOnUse" color-interpolation-filters="sRGB">
<feFlood flood-opacity="0" result="BackgroundImageFix"/>
<feBlend mode="normal" in="SourceGraphic" in2="BackgroundImageFix" result="shape"/>
<feGaussianBlur stdDeviation="35.7143" result="effect1_foregroundBlur_979_158"/>
</filter>
<filter id="filter1_f_979_158" x="364.571" y="-270.429" width="688.857" height="564.857" filterUnits="userSpaceOnUse" color-interpolation-filters="sRGB">
<feFlood flood-opacity="0" result="BackgroundImageFix"/>
<feBlend mode="normal" in="SourceGraphic" in2="BackgroundImageFix" result="shape"/>
<feGaussianBlur stdDeviation="35.7143" result="effect1_foregroundBlur_979_158"/>
</filter>
<filter id="filter2_f_979_158" x="-332.429" y="22.5714" width="688.857" height="564.857" filterUnits="userSpaceOnUse" color-interpolation-filters="sRGB">
<feFlood flood-opacity="0" result="BackgroundImageFix"/>
<feBlend mode="normal" in="SourceGraphic" in2="BackgroundImageFix" result="shape"/>
<feGaussianBlur stdDeviation="35.7143" result="effect1_foregroundBlur_979_158"/>
</filter>
<radialGradient id="paint0_radial_979_158" cx="0" cy="0" r="1" gradientUnits="userSpaceOnUse" gradientTransform="translate(249.392 146.38) rotate(90) scale(146.38 189.392)">
<stop offset="0.015625" stop-color="#CEFF1A" stop-opacity="0.69"/>
<stop offset="0.223958" stop-color="#CEFF1A" stop-opacity="0.34"/>
<stop offset="0.911458" stop-color="#CEFF1A" stop-opacity="0"/>
</radialGradient>
<radialGradient id="paint1_radial_979_158" cx="0" cy="0" r="1" gradientUnits="userSpaceOnUse" gradientTransform="translate(709 12) rotate(90) scale(211 273)">
<stop offset="0.015625" stop-color="#CEFF1A" stop-opacity="0.69"/>
<stop offset="0.223958" stop-color="#CEFF1A" stop-opacity="0.34"/>
<stop offset="0.911458" stop-color="#CEFF1A" stop-opacity="0"/>
</radialGradient>
<radialGradient id="paint2_radial_979_158" cx="0" cy="0" r="1" gradientUnits="userSpaceOnUse" gradientTransform="translate(12 305) rotate(90) scale(211 273)">
<stop offset="0.015625" stop-color="#CEFF1A" stop-opacity="0.69"/>
<stop offset="0.223958" stop-color="#CEFF1A" stop-opacity="0.34"/>
<stop offset="0.911458" stop-color="#CEFF1A" stop-opacity="0"/>
</radialGradient>
<clipPath id="clip0_979_158">
<rect width="700" height="320" rx="13" fill="white"/>
</clipPath>
<clipPath id="clip1_979_158">
<rect width="168.207" height="26.9303" fill="white" transform="translate(322.875 146.637)"/>
</clipPath>
</defs>
</svg>
