<svg width="700" height="320" viewBox="0 0 700 320" fill="none" xmlns="http://www.w3.org/2000/svg">
<g clip-path="url(#clip0_498_23)">
<mask id="mask0_498_23" style="mask-type:luminance" maskUnits="userSpaceOnUse" x="0" y="0" width="700" height="320">
<path d="M684 0H16C7.16344 0 0 7.16344 0 16V304C0 312.837 7.16344 320 16 320H684C692.837 320 700 312.837 700 304V16C700 7.16344 692.837 0 684 0Z" fill="white"/>
</mask>
<g mask="url(#mask0_498_23)">
<path d="M684 0H16C7.16344 0 0 7.16344 0 16V304C0 312.837 7.16344 320 16 320H684C692.837 320 700 312.837 700 304V16C700 7.16344 692.837 0 684 0Z" fill="url(#paint0_linear_498_23)"/>
<path d="M311.72 247.034C283.108 246.887 258.409 231.208 246.538 201.531C234.656 171.825 238.271 134.702 253.583 101.377C282.195 101.524 306.894 117.203 318.765 146.88C330.647 176.586 327.031 213.709 311.72 247.034Z" stroke="url(#paint1_linear_498_23)" stroke-opacity="0.05" stroke-width="0.530516"/>
<path d="M393.586 261.878C362.034 272.529 329.98 265.88 306.002 246.907C317.534 215.919 341.57 190.327 373.13 179.673C404.681 169.023 436.735 175.671 460.714 194.644C449.181 225.632 425.145 251.224 393.586 261.878Z" stroke="url(#paint2_linear_498_23)" stroke-opacity="0.05" stroke-width="0.530516"/>
<g opacity="0.8" filter="url(#filter0_f_498_23)">
<path d="M660 100C748.366 100 820 28.3656 820 -60C820 -148.366 748.366 -220 660 -220C571.634 -220 500 -148.366 500 -60C500 28.3656 571.634 100 660 100Z" fill="#5D32F5"/>
</g>
<g opacity="0.8" filter="url(#filter1_f_498_23)">
<path d="M20 373C108.366 373 180 301.366 180 213C180 124.634 108.366 53 20 53C-68.3656 53 -140 124.634 -140 213C-140 301.366 -68.3656 373 20 373Z" fill="#673EF5"/>
</g>
<g opacity="0.8" filter="url(#filter2_f_498_23)">
</g>
<g opacity="0.8" filter="url(#filter3_f_498_23)">
<path d="M20 573C108.366 573 180 501.366 180 413C180 324.634 108.366 253 20 253C-68.3656 253 -140 324.634 -140 413C-140 501.366 -68.3656 573 20 573Z" fill="#4018E2" fill-opacity="0.22"/>
</g>
<path opacity="0.2" d="M0 50H700" stroke="url(#paint3_radial_498_23)" stroke-dasharray="4 4"/>
<path opacity="0.1" d="M0 82H700" stroke="url(#paint4_radial_498_23)" stroke-dasharray="4 4"/>
<path opacity="0.2" d="M239 0V320" stroke="url(#paint5_radial_498_23)" stroke-dasharray="4 4"/>
<path opacity="0.1" d="M271 0V320" stroke="url(#paint6_radial_498_23)" stroke-dasharray="4 4"/>
<path opacity="0.2" d="M461 0V320" stroke="url(#paint7_radial_498_23)" stroke-dasharray="4 4"/>
<path opacity="0.1" d="M429 0V320" stroke="url(#paint8_radial_498_23)" stroke-dasharray="4 4"/>
<path opacity="0.2" d="M0 271H700" stroke="url(#paint9_radial_498_23)" stroke-dasharray="4 4"/>
<path opacity="0.1" d="M0 239H700" stroke="url(#paint10_radial_498_23)" stroke-dasharray="4 4"/>
<g style="mix-blend-mode:overlay" opacity="0.1">
<path d="M0 160H700" stroke="url(#paint11_linear_498_23)"/>
</g>
<g style="mix-blend-mode:overlay" opacity="0.2">
<path d="M511 -1L189 321" stroke="url(#paint12_linear_498_23)"/>
</g>
<g style="mix-blend-mode:overlay" opacity="0.2">
<path d="M511 321L189 -1" stroke="url(#paint13_linear_498_23)"/>
</g>
<g style="mix-blend-mode:overlay" opacity="0.1">
<path d="M350 271C411.304 271 461 221.304 461 160C461 98.6964 411.304 49 350 49C288.696 49 239 98.6964 239 160C239 221.304 288.696 271 350 271Z" stroke="white"/>
</g>
<g style="mix-blend-mode:overlay" opacity="0.1">
<path d="M350 239C393.63 239 429 203.63 429 160C429 116.37 393.63 81 350 81C306.37 81 271 116.37 271 160C271 203.63 306.37 239 350 239Z" stroke="white"/>
</g>
<path d="M349.812 51.6233C320.842 51.6233 291.873 62.6733 269.773 84.7733C225.573 128.973 225.573 200.643 269.773 244.843C291.873 266.95 320.842 278 349.812 278C378.781 278 407.75 266.95 429.85 244.85C474.05 200.65 474.05 128.98 429.85 84.7804C407.75 62.6733 378.781 51.6233 349.812 51.6233ZM424.848 239.848C404.8 259.89 378.158 270.926 349.812 270.926C321.465 270.926 294.823 259.89 274.775 239.848C233.397 198.471 233.397 131.152 274.775 89.7819C294.823 69.7334 321.465 58.6976 349.812 58.6976C378.158 58.6976 404.8 69.7334 424.848 89.7748C466.219 131.152 466.219 198.471 424.848 239.848Z" fill="url(#paint14_linear_498_23)"/>
<path d="M342.125 103.524L289.562 156.087L294.564 161.089L347.127 108.526L342.125 103.524Z" fill="url(#paint15_linear_498_23)"/>
<path d="M375.838 102.275L290.486 187.628L295.488 192.63L380.841 107.277L375.838 102.275Z" fill="url(#paint16_linear_498_23)"/>
<path d="M405.603 104.988L289.016 221.575L294.018 226.577L410.605 109.99L405.603 104.988Z" fill="url(#paint17_linear_498_23)"/>
<path d="M404.361 138.699L322.675 220.385L327.677 225.388L409.363 143.701L404.361 138.699Z" fill="url(#paint18_linear_498_23)"/>
<path d="M405.464 170.068L353.186 222.346L358.188 227.348L410.466 175.07L405.464 170.068Z" fill="url(#paint19_linear_498_23)"/>
</g>
</g>
<defs>
<filter id="filter0_f_498_23" x="260" y="-460" width="800" height="800" filterUnits="userSpaceOnUse" color-interpolation-filters="sRGB">
<feFlood flood-opacity="0" result="BackgroundImageFix"/>
<feBlend mode="normal" in="SourceGraphic" in2="BackgroundImageFix" result="shape"/>
<feGaussianBlur stdDeviation="120" result="effect1_foregroundBlur_498_23"/>
</filter>
<filter id="filter1_f_498_23" x="-380" y="-187" width="800" height="800" filterUnits="userSpaceOnUse" color-interpolation-filters="sRGB">
<feFlood flood-opacity="0" result="BackgroundImageFix"/>
<feBlend mode="normal" in="SourceGraphic" in2="BackgroundImageFix" result="shape"/>
<feGaussianBlur stdDeviation="120" result="effect1_foregroundBlur_498_23"/>
</filter>
<filter id="filter2_f_498_23" x="260" y="80" width="800" height="800" filterUnits="userSpaceOnUse" color-interpolation-filters="sRGB">
<feFlood flood-opacity="0" result="BackgroundImageFix"/>
<feBlend mode="normal" in="SourceGraphic" in2="BackgroundImageFix" result="shape"/>
<feGaussianBlur stdDeviation="120" result="effect1_foregroundBlur_498_23"/>
</filter>
<filter id="filter3_f_498_23" x="-380" y="13" width="800" height="800" filterUnits="userSpaceOnUse" color-interpolation-filters="sRGB">
<feFlood flood-opacity="0" result="BackgroundImageFix"/>
<feBlend mode="normal" in="SourceGraphic" in2="BackgroundImageFix" result="shape"/>
<feGaussianBlur stdDeviation="120" result="effect1_foregroundBlur_498_23"/>
</filter>
<linearGradient id="paint0_linear_498_23" x1="1.27814e-05" y1="320" x2="710.784" y2="26.0793" gradientUnits="userSpaceOnUse">
<stop stop-opacity="0.09"/>
<stop offset="0.729167" stop-color="#1B0C4E"/>
</linearGradient>
<linearGradient id="paint1_linear_498_23" x1="311.84" y1="123.717" x2="253.579" y2="224.761" gradientUnits="userSpaceOnUse">
<stop/>
<stop offset="1" stop-opacity="0"/>
</linearGradient>
<linearGradient id="paint2_linear_498_23" x1="395.842" y1="169.781" x2="370.99" y2="271.799" gradientUnits="userSpaceOnUse">
<stop/>
<stop offset="1" stop-opacity="0"/>
</linearGradient>
<radialGradient id="paint3_radial_498_23" cx="0" cy="0" r="1" gradientUnits="userSpaceOnUse" gradientTransform="translate(-nan -nan) rotate(-nan) scale(-nan -nan)">
<stop offset="0.348958" stop-color="#8261F3"/>
<stop offset="0.880208" stop-color="#5626FF" stop-opacity="0"/>
</radialGradient>
<radialGradient id="paint4_radial_498_23" cx="0" cy="0" r="1" gradientUnits="userSpaceOnUse" gradientTransform="translate(-nan -nan) rotate(-nan) scale(-nan -nan)">
<stop offset="0.348958" stop-color="#8261F3"/>
<stop offset="0.880208" stop-color="#5626FF" stop-opacity="0"/>
</radialGradient>
<radialGradient id="paint5_radial_498_23" cx="0" cy="0" r="1" gradientUnits="userSpaceOnUse" gradientTransform="translate(-nan -nan) rotate(-nan) scale(-nan -nan)">
<stop offset="0.348958" stop-color="#8261F3"/>
<stop offset="0.880208" stop-color="#5626FF" stop-opacity="0"/>
</radialGradient>
<radialGradient id="paint6_radial_498_23" cx="0" cy="0" r="1" gradientUnits="userSpaceOnUse" gradientTransform="translate(-nan -nan) rotate(-nan) scale(-nan -nan)">
<stop offset="0.348958" stop-color="#8261F3"/>
<stop offset="0.880208" stop-color="#5626FF" stop-opacity="0"/>
</radialGradient>
<radialGradient id="paint7_radial_498_23" cx="0" cy="0" r="1" gradientUnits="userSpaceOnUse" gradientTransform="translate(-nan -nan) rotate(-nan) scale(-nan -nan)">
<stop offset="0.348958" stop-color="#8261F3"/>
<stop offset="0.880208" stop-color="#5626FF" stop-opacity="0"/>
</radialGradient>
<radialGradient id="paint8_radial_498_23" cx="0" cy="0" r="1" gradientUnits="userSpaceOnUse" gradientTransform="translate(-nan -nan) rotate(-nan) scale(-nan -nan)">
<stop offset="0.348958" stop-color="#8261F3"/>
<stop offset="0.880208" stop-color="#5626FF" stop-opacity="0"/>
</radialGradient>
<radialGradient id="paint9_radial_498_23" cx="0" cy="0" r="1" gradientUnits="userSpaceOnUse" gradientTransform="translate(-nan -nan) rotate(-nan) scale(-nan -nan)">
<stop offset="0.348958" stop-color="#8261F3"/>
<stop offset="0.880208" stop-color="#5626FF" stop-opacity="0"/>
</radialGradient>
<radialGradient id="paint10_radial_498_23" cx="0" cy="0" r="1" gradientUnits="userSpaceOnUse" gradientTransform="translate(-nan -nan) rotate(-nan) scale(-nan -nan)">
<stop offset="0.348958" stop-color="#8261F3"/>
<stop offset="0.880208" stop-color="#5626FF" stop-opacity="0"/>
</radialGradient>
<linearGradient id="paint11_linear_498_23" x1="-nan" y1="-nan" x2="-nan" y2="-nan" gradientUnits="userSpaceOnUse">
<stop stop-color="white" stop-opacity="0.1"/>
<stop offset="0.5" stop-color="white"/>
<stop offset="1" stop-color="white" stop-opacity="0.1"/>
</linearGradient>
<linearGradient id="paint12_linear_498_23" x1="511" y1="-1" x2="189" y2="321" gradientUnits="userSpaceOnUse">
<stop stop-color="white" stop-opacity="0.1"/>
<stop offset="0.5" stop-color="white"/>
<stop offset="1" stop-color="white" stop-opacity="0.1"/>
</linearGradient>
<linearGradient id="paint13_linear_498_23" x1="511" y1="321" x2="189" y2="-1" gradientUnits="userSpaceOnUse">
<stop stop-color="white" stop-opacity="0.1"/>
<stop offset="0.5" stop-color="white"/>
<stop offset="1" stop-color="white" stop-opacity="0.1"/>
</linearGradient>
<linearGradient id="paint14_linear_498_23" x1="238.91" y1="100.57" x2="411.512" y2="107.709" gradientUnits="userSpaceOnUse">
<stop stop-color="#B6A6ED"/>
<stop offset="1" stop-color="#8261F3"/>
</linearGradient>
<linearGradient id="paint15_linear_498_23" x1="291.174" y1="156.638" x2="339.617" y2="137.545" gradientUnits="userSpaceOnUse">
<stop stop-color="#B6A6ED"/>
<stop offset="1" stop-color="#8261F3"/>
</linearGradient>
<linearGradient id="paint16_linear_498_23" x1="292.429" y1="187.847" x2="366.656" y2="175.041" gradientUnits="userSpaceOnUse">
<stop stop-color="#B6A6ED"/>
<stop offset="1" stop-color="#8261F3"/>
</linearGradient>
<linearGradient id="paint17_linear_498_23" x1="291.275" y1="221.479" x2="381.923" y2="219.815" gradientUnits="userSpaceOnUse">
<stop stop-color="#B6A6ED"/>
<stop offset="1" stop-color="#8261F3"/>
</linearGradient>
<linearGradient id="paint18_linear_498_23" x1="324.582" y1="220.642" x2="396.364" y2="206.734" gradientUnits="userSpaceOnUse">
<stop stop-color="#B6A6ED"/>
<stop offset="1" stop-color="#8261F3"/>
</linearGradient>
<linearGradient id="paint19_linear_498_23" x1="354.795" y1="222.899" x2="402.979" y2="203.799" gradientUnits="userSpaceOnUse">
<stop stop-color="#B6A6ED"/>
<stop offset="1" stop-color="#8261F3"/>
</linearGradient>
<clipPath id="clip0_498_23">
<rect width="700" height="320" fill="white"/>
</clipPath>
</defs>
</svg>
